<mxfile host="app.diagrams.net" modified="2021-10-21T16:07:47.290Z" agent="5.0 (Windows NT 10.0; Win64; x64) AppleWebKit/537.36 (KHTML, like Gecko) Chrome/94.0.4606.81 Safari/537.36" etag="I3obOcpworcNzhPw3mIu" version="15.5.6" type="github">
  <diagram id="sDNUC1vKUn18IFtwf7v6" name="Page-1">
    <mxGraphModel dx="1019" dy="453" grid="1" gridSize="10" guides="1" tooltips="1" connect="1" arrows="1" fold="1" page="1" pageScale="1" pageWidth="850" pageHeight="1100" math="0" shadow="0">
      <root>
        <mxCell id="0" />
        <mxCell id="1" parent="0" />
        <mxCell id="8yajt10hfFsNk0NhxGPU-1" value="&lt;b&gt;2.1 Choose or create&lt;br&gt;Template&lt;/b&gt;" style="ellipse;whiteSpace=wrap;html=1;aspect=fixed;" vertex="1" parent="1">
          <mxGeometry x="280" y="130" width="90" height="90" as="geometry" />
        </mxCell>
        <mxCell id="8yajt10hfFsNk0NhxGPU-2" value="" style="endArrow=classic;html=1;rounded=0;entryX=0;entryY=0.5;entryDx=0;entryDy=0;" edge="1" parent="1" target="8yajt10hfFsNk0NhxGPU-1">
          <mxGeometry width="50" height="50" relative="1" as="geometry">
            <mxPoint x="140" y="175" as="sourcePoint" />
            <mxPoint x="180" y="140" as="targetPoint" />
          </mxGeometry>
        </mxCell>
        <mxCell id="8yajt10hfFsNk0NhxGPU-3" value="&lt;b&gt;2.2 Choose or create target user group&lt;/b&gt;" style="ellipse;whiteSpace=wrap;html=1;aspect=fixed;" vertex="1" parent="1">
          <mxGeometry x="460" y="130" width="90" height="90" as="geometry" />
        </mxCell>
        <mxCell id="8yajt10hfFsNk0NhxGPU-4" value="&lt;b&gt;2.3 Schedule Campaign&lt;br&gt;&lt;br&gt;&lt;/b&gt;" style="ellipse;whiteSpace=wrap;html=1;aspect=fixed;" vertex="1" parent="1">
          <mxGeometry x="470" y="280" width="90" height="90" as="geometry" />
        </mxCell>
        <mxCell id="8yajt10hfFsNk0NhxGPU-5" value="" style="endArrow=classic;html=1;rounded=0;exitX=1;exitY=0.5;exitDx=0;exitDy=0;entryX=0;entryY=0.5;entryDx=0;entryDy=0;" edge="1" parent="1" source="8yajt10hfFsNk0NhxGPU-1" target="8yajt10hfFsNk0NhxGPU-3">
          <mxGeometry width="50" height="50" relative="1" as="geometry">
            <mxPoint x="370" y="140" as="sourcePoint" />
            <mxPoint x="420" y="90" as="targetPoint" />
          </mxGeometry>
        </mxCell>
        <mxCell id="8yajt10hfFsNk0NhxGPU-6" value="" style="endArrow=classic;html=1;rounded=0;exitX=0.621;exitY=1.033;exitDx=0;exitDy=0;exitPerimeter=0;" edge="1" parent="1" source="8yajt10hfFsNk0NhxGPU-3">
          <mxGeometry width="50" height="50" relative="1" as="geometry">
            <mxPoint x="590" y="240" as="sourcePoint" />
            <mxPoint x="516" y="280" as="targetPoint" />
          </mxGeometry>
        </mxCell>
        <mxCell id="8yajt10hfFsNk0NhxGPU-8" value="Campaign details" style="text;html=1;strokeColor=none;fillColor=none;align=center;verticalAlign=middle;whiteSpace=wrap;rounded=0;" vertex="1" parent="1">
          <mxGeometry x="150" y="140" width="90" height="30" as="geometry" />
        </mxCell>
        <mxCell id="8yajt10hfFsNk0NhxGPU-11" value="Campaign templates" style="text;html=1;strokeColor=none;fillColor=none;align=center;verticalAlign=middle;whiteSpace=wrap;rounded=0;" vertex="1" parent="1">
          <mxGeometry x="370" y="130" width="90" height="30" as="geometry" />
        </mxCell>
        <mxCell id="8yajt10hfFsNk0NhxGPU-12" value="Campaign target users" style="text;html=1;strokeColor=none;fillColor=none;align=center;verticalAlign=middle;whiteSpace=wrap;rounded=0;" vertex="1" parent="1">
          <mxGeometry x="520" y="230" width="80" height="30" as="geometry" />
        </mxCell>
        <mxCell id="8yajt10hfFsNk0NhxGPU-13" value="" style="endArrow=classic;html=1;rounded=0;exitX=0;exitY=0.5;exitDx=0;exitDy=0;" edge="1" parent="1" source="8yajt10hfFsNk0NhxGPU-4">
          <mxGeometry width="50" height="50" relative="1" as="geometry">
            <mxPoint x="330" y="340" as="sourcePoint" />
            <mxPoint x="360" y="325" as="targetPoint" />
          </mxGeometry>
        </mxCell>
        <mxCell id="8yajt10hfFsNk0NhxGPU-14" value="Send email on scheduled date" style="text;html=1;strokeColor=none;fillColor=none;align=center;verticalAlign=middle;whiteSpace=wrap;rounded=0;" vertex="1" parent="1">
          <mxGeometry x="380" y="280" width="90" height="30" as="geometry" />
        </mxCell>
      </root>
    </mxGraphModel>
  </diagram>
</mxfile>
